<?xml version="1.0" standalone="no"?>
<!DOCTYPE svg PUBLIC "-//W3C//DTD SVG 20010904//EN"
 "http://www.w3.org/TR/2001/REC-SVG-20010904/DTD/svg10.dtd">
<svg version="1.0" xmlns="http://www.w3.org/2000/svg"
 width="220.000000pt" height="96.000000pt" viewBox="0 0 220.000000 96.000000"
 preserveAspectRatio="xMidYMid meet">

<g transform="translate(0.000000,96.000000) scale(0.100000,-0.100000)"
fill="#000000" stroke="none">
<path d="M0 480 l0 -480 1100 0 1100 0 0 480 0 480 -1100 0 -1100 0 0 -480z
m1840 449 c128 -29 251 -127 311 -246 30 -61 34 -78 37 -165 4 -103 -11 -169
-59 -255 -31 -57 -36 -58 -37 -9 -1 81 -63 136 -155 136 -39 0 -49 -5 -75 -34
-17 -19 -33 -48 -37 -65 -8 -37 -15 -38 -52 -7 -92 77 -165 103 -197 70 -33
-33 -14 -84 32 -84 19 0 22 4 17 21 -5 16 -3 20 10 17 27 -5 42 -34 29 -55
-32 -51 -123 -29 -243 57 -86 61 -120 72 -162 50 -26 -14 -26 -66 0 -80 33
-17 54 -13 48 11 -4 16 -1 20 16 17 17 -2 23 -11 25 -35 3 -28 -1 -33 -23 -39
-51 -13 -92 4 -179 70 -96 73 -144 90 -176 61 -28 -25 -26 -73 3 -84 26 -10
40 -4 33 14 -7 19 20 27 34 10 16 -19 5 -63 -18 -67 -9 -2 28 -7 83 -11 55 -4
116 -11 135 -16 l35 -8 -35 -10 c-31 -10 -25 -11 50 -12 99 0 196 -25 299 -75
104 -51 158 -66 230 -66 103 0 214 62 259 145 6 11 12 15 12 8 0 -28 -69 -99
-125 -128 -60 -30 -61 -30 -245 -32 -104 -1 -205 3 -230 9 -99 24 -226 60
-249 71 -33 17 -315 16 -360 0 -19 -7 -84 -18 -145 -23 -134 -13 -274 0 -350
32 -53 22 -162 94 -185 122 -19 23 -5 33 21 17 24 -15 172 -27 212 -17 16 4
26 13 26 25 0 30 -12 32 -37 5 -22 -24 -26 -25 -46 -11 -34 22 -35 73 -1 108
15 16 38 29 50 29 12 0 30 3 40 7 13 5 6 11 -32 28 l-49 22 -36 -23 c-108 -67
-229 -71 -295 -9 -19 18 -34 41 -34 51 0 16 2 17 10 4 7 -11 10 -6 10 21 0 67
67 120 147 118 33 -1 31 -2 -16 -9 -70 -11 -111 -49 -121 -114 -4 -26 -5 -44
-2 -41 3 3 15 -4 26 -14 12 -11 42 -25 67 -32 42 -11 54 -10 117 10 38 12 77
30 86 40 15 16 14 20 -11 54 -30 39 -43 46 -43 22 0 -8 -13 -29 -28 -46 -21
-24 -39 -32 -74 -36 -62 -7 -71 13 -9 21 53 7 75 25 92 74 9 27 8 37 -6 60
l-18 27 27 -24 26 -24 0 31 c0 17 4 33 8 36 5 3 6 -8 4 -24 -6 -39 7 -107 17
-92 5 9 12 4 21 -13 20 -38 41 -31 94 30 46 54 47 56 32 80 -19 28 -54 40 -92
31 -27 -7 -60 -67 -50 -92 3 -8 0 -14 -6 -14 -7 0 -9 13 -5 38 8 50 49 85 93
80 18 -2 30 0 28 4 -7 12 -82 10 -105 -2 -10 -6 -19 -8 -19 -5 0 3 16 13 36
21 43 18 89 7 124 -31 13 -14 27 -25 31 -25 4 0 34 26 67 58 92 89 221 151
160 77 -48 -58 -178 -293 -178 -322 0 -7 49 3 57 12 5 4 1 4 -7 0 -8 -5 1 11
21 35 20 24 41 46 48 48 7 2 2 -8 -11 -23 -12 -14 -23 -30 -23 -33 0 -4 -6
-22 -14 -40 -12 -30 -12 -35 3 -50 14 -14 16 -14 11 -2 -3 9 12 44 34 80 27
45 35 67 27 72 -7 5 -5 8 7 8 24 0 22 -7 -23 -79 -21 -36 -38 -67 -36 -69 9
-9 45 25 89 84 30 41 55 64 67 64 28 0 25 -11 -20 -82 -21 -34 -37 -64 -35
-66 2 -3 15 -2 28 2 23 5 47 43 76 119 14 36 41 36 41 -1 0 -27 -29 -80 -30
-55 0 6 5 15 10 18 13 8 13 55 0 55 -5 0 -12 -12 -15 -27 -4 -16 -13 -44 -21
-63 -13 -32 -13 -33 1 -15 9 11 21 20 28 20 7 0 27 15 46 33 46 45 103 73 122
61 8 -5 29 -6 47 -3 42 8 42 -5 -4 -79 -20 -32 -34 -61 -31 -63 9 -9 98 89
112 124 16 36 34 42 42 12 6 -24 35 -26 67 -4 37 24 45 -3 10 -32 -34 -27 -53
-32 -33 -7 12 14 12 16 -1 11 -16 -5 -23 -45 -9 -54 5 -3 9 -14 9 -26 0 -16
14 -7 71 46 42 40 82 69 100 73 25 5 30 10 25 28 -3 12 -6 51 -7 87 -2 65 10
99 53 160 55 79 224 126 348 97z m-1017 -269 c25 -20 25 -22 9 -40 -9 -11 -21
-20 -26 -20 -5 0 -2 8 8 18 15 18 15 20 -2 35 -21 19 -54 22 -83 7 -33 -18
-18 -48 32 -60 29 -7 30 -8 9 -9 -31 -1 -70 24 -70 46 0 42 80 57 123 23z
m121 10 c20 -7 26 -16 25 -37 l-2 -28 -4 27 c-3 22 -11 29 -38 34 -18 3 -43 1
-56 -6 -23 -11 -23 -10 -5 4 23 18 44 20 80 6z m159 -10 l14 -20 18 20 c23 26
75 26 106 1 19 -16 22 -23 13 -37 -6 -10 -17 -20 -25 -23 -9 -3 -9 1 3 13 10
9 15 23 11 31 -12 32 -98 31 -110 -1 -8 -20 8 -34 49 -44 29 -7 30 -8 7 -9
-15 -1 -37 7 -49 17 -23 18 -24 18 -42 0 -35 -35 -118 -17 -118 25 0 34 19 47
66 47 32 0 47 -5 57 -20z m272 8 c42 -19 30 -63 -21 -77 -40 -11 -84 11 -84
44 0 41 52 57 105 33z m-1147 -26 c7 -5 -14 -6 -45 -4 -52 3 -62 1 -100 -27
-27 -19 -46 -43 -52 -63 -5 -18 -10 -25 -10 -15 -2 30 29 73 68 96 37 21 114
28 139 13z m949 -8 c-3 -3 -12 -4 -19 -1 -8 3 -5 6 6 6 11 1 17 -2 13 -5z
m-257 -42 c3 -3 -8 -2 -25 2 -16 4 -34 12 -40 17 -5 5 6 4 25 -2 19 -7 37 -14
40 -17z m-660 3 c7 -9 11 -17 8 -20 -2 -2 -12 4 -21 15 -9 11 -13 20 -8 20 5
0 14 -7 21 -15z m1744 -287 c25 -27 28 -37 24 -77 -7 -67 -32 -100 -105 -133
-71 -32 -145 -37 -209 -14 -66 23 -175 78 -168 85 5 6 246 14 351 11 62 -1 93
22 93 71 l0 32 -25 -27 c-31 -33 -71 -35 -86 -3 -22 47 25 103 76 90 11 -2 33
-18 49 -35z"/>
<path d="M724 792 c-6 -4 -16 -17 -23 -29 -6 -13 -15 -22 -19 -22 -21 3 -36
-6 -91 -57 -43 -39 -61 -64 -61 -81 0 -15 -4 -22 -11 -18 -6 4 -8 13 -5 21 3
8 1 14 -4 14 -15 0 -12 -26 5 -40 8 -7 15 -20 15 -29 0 -12 6 -10 21 9 19 23
19 21 -2 -15 -12 -22 -31 -56 -41 -75 -10 -19 -17 -26 -14 -15 14 62 17 87 11
104 -5 18 -11 15 -51 -26 -24 -26 -42 -53 -40 -59 3 -7 18 -15 35 -19 17 -4
29 -11 25 -16 -3 -5 0 -9 7 -9 6 0 9 -8 6 -20 -3 -13 0 -20 9 -20 17 0 47 33
50 55 4 30 93 202 139 271 57 85 57 84 53 84 -2 0 -8 -4 -14 -8z m-106 -142
c-23 -33 -43 -58 -45 -56 -5 5 70 115 79 116 4 0 -12 -27 -34 -60z"/>
<path d="M1702 634 c-27 -18 -31 -84 -6 -108 38 -39 106 -28 124 20 28 73 -53
134 -118 88z"/>
<path d="M755 496 c-30 -46 -34 -57 -25 -80 5 -14 15 -26 21 -26 8 0 9 4 0 13
-8 11 -2 28 29 76 45 69 46 71 26 71 -8 0 -31 -24 -51 -54z"/>
<path d="M974 531 c-51 -32 -63 -52 -55 -96 5 -31 11 -41 29 -43 14 -2 24 3
29 15 4 10 19 34 34 53 15 19 29 46 32 60 l4 25 2 -26 c0 -15 -8 -37 -18 -50
-21 -27 -18 -79 5 -79 8 0 11 6 7 15 -3 9 11 42 32 76 39 63 40 78 7 60 -11
-6 -22 -7 -26 -4 -13 14 -55 10 -82 -6z m18 -20 c-15 -16 -34 -44 -40 -63 -11
-31 -11 -31 -6 -3 6 33 49 95 65 95 6 0 -3 -13 -19 -29z"/>
<path d="M1174 539 c-3 -6 0 -15 7 -20 22 -14 28 -11 22 11 -6 22 -18 26 -29
9z"/>
<path d="M1371 520 c-49 -36 -53 -44 -43 -90 6 -27 13 -35 30 -36 13 -1 20 1
18 4 -3 2 10 21 29 40 48 51 60 113 17 86 -26 -17 -62 -74 -63 -103 -2 -23 -2
-24 -6 -4 -6 30 35 101 67 119 16 9 20 13 9 14 -9 0 -35 -14 -58 -30z"/>
<path d="M1457 523 c3 -20 -5 -40 -26 -70 -17 -24 -24 -40 -16 -37 9 4 15 0
15 -10 0 -10 8 -16 23 -15 12 0 16 3 10 6 -19 7 -17 16 23 83 37 61 39 84 5
63 -12 -7 -22 -8 -28 -2 -6 6 -8 0 -6 -18z"/>
<path d="M1265 530 c-3 -5 -2 -10 4 -10 5 0 13 5 16 10 3 6 2 10 -4 10 -5 0
-13 -4 -16 -10z"/>
<path d="M1190 467 c-14 -12 -38 -32 -54 -45 -16 -12 -26 -26 -22 -29 4 -4 15
2 24 13 9 12 27 27 40 33 18 10 23 9 27 -4 3 -8 7 -22 10 -30 8 -25 21 -17 23
16 2 24 -2 32 -18 36 -16 4 -18 8 -9 19 17 20 8 16 -21 -9z"/>
<path d="M1504 428 l-29 -33 33 29 c30 28 37 36 29 36 -2 0 -16 -15 -33 -32z"/>
<path d="M677 362 c-25 -27 -22 -71 6 -81 24 -10 47 3 47 26 0 26 35 9 38 -19
2 -20 -4 -31 -23 -44 -34 -22 -79 -9 -170 51 -127 83 -215 94 -215 27 0 -32
16 -52 42 -52 12 0 18 7 18 21 0 34 44 21 48 -14 3 -23 -2 -30 -33 -43 -26
-10 -51 -13 -83 -8 -72 10 -46 -3 43 -22 107 -23 286 -21 430 6 61 11 124 20
140 20 29 1 29 2 6 11 -13 5 -40 22 -60 37 -71 56 -156 102 -187 102 -17 0
-38 -8 -47 -18z"/>
<path d="M999 654 c-21 -25 1 -49 46 -49 24 0 42 6 48 17 16 24 -8 48 -48 48
-18 0 -38 -7 -46 -16z"/>
<path d="M1295 652 c-3 -3 -5 -10 -5 -16 0 -6 5 -4 10 4 8 12 10 11 10 -7 0
-17 5 -22 23 -21 35 3 30 43 -5 44 -15 1 -30 -1 -33 -4z"/>
</g>
</svg>
